<svg id="Layer_1" data-name="Layer 1" xmlns="http://www.w3.org/2000/svg" viewBox="0 0 372.88 500"><g id="Layer_1-2" data-name="Layer 1-2"><path d="M634.37,463.88c-7.82-4.42-15.29-9.17-24.12-14.27,8.83-5.43,17-10.18,24.8-14.6a97.76,97.76,0,0,0,50.26-100.53c-8.83-66.9-85.92-105.62-144.34-72.33-59.77,34.3-119.54,67.92-178.64,103.24-46.86,28.19-53.66,65.55-46.18,109.7,4.75,27.51,23.09,47.88,47.2,61.81,8.49,4.75,16.64,9.51,25.81,14.94C379,558,369.8,563.39,360,568.48a98.06,98.06,0,0,0-34,129.39c25.82,47.89,85.59,66.23,133.47,40.42,51.63-29.21,103.25-59.09,154.53-89,12.23-7.13,25.13-13.59,36-22.42C704.67,581.39,696.52,498.86,634.37,463.88ZM452,575.27V426.86l128.38,74Z" transform="translate(-313.56 -250)"/></g></svg>